<svg xmlns="http://www.w3.org/2000/svg" xmlns:xlink="http://www.w3.org/1999/xlink" width="201" zoomAndPan="magnify" viewBox="0 0 150.75 27.749998" height="37" preserveAspectRatio="xMidYMid meet" version="1.0"><defs><g/><clipPath id="da4a60b3a9"><path d="M 0.550781 0 L 149.953125 0 L 149.953125 27.503906 L 0.550781 27.503906 Z M 0.550781 0 " clip-rule="nonzero"/></clipPath><clipPath id="1b3556c8b9"><path d="M 0.550781 0 L 27.660156 0 L 27.660156 27.113281 L 0.550781 27.113281 Z M 0.550781 0 " clip-rule="nonzero"/></clipPath></defs><g clip-path="url(#da4a60b3a9)"><path fill="#ffffff" d="M 0.550781 0 L 149.953125 0 L 149.953125 27.503906 L 0.550781 27.503906 Z M 0.550781 0 " fill-opacity="1" fill-rule="nonzero"/></g><g clip-path="url(#1b3556c8b9)"><path stroke-linecap="butt" transform="matrix(0.451862, 0, 0, 0.451862, 0.549113, -0.000000991071)" fill-opacity="1" fill="#ffffff" fill-rule="nonzero" stroke-linejoin="miter" d="M 0.00369298 0.00000219331 L 59.998533 0.00000219331 L 59.998533 60.003487 L 0.00369298 60.003487 Z M 0.00369298 0.00000219331 " stroke="#000000" stroke-width="3.28996" stroke-opacity="1" stroke-miterlimit="4"/></g><g fill="#000000" fill-opacity="1"><g transform="translate(4.43936, 17.622606)"><g><path d="M 1.828125 -9.515625 L 2.5 -9.515625 C 2.625 -9.515625 2.6875 -9.453125 2.6875 -9.328125 L 2.6875 -1.046875 L 8.109375 -1.046875 C 8.171875 -1.046875 8.21875 -1.023438 8.25 -0.984375 C 8.289062 -0.941406 8.3125 -0.898438 8.3125 -0.859375 L 8.3125 -0.1875 C 8.3125 -0.0625 8.242188 0 8.109375 0 L 1.828125 0 C 1.785156 0 1.742188 -0.015625 1.703125 -0.046875 C 1.660156 -0.0859375 1.640625 -0.132812 1.640625 -0.1875 L 1.640625 -9.328125 C 1.640625 -9.378906 1.660156 -9.421875 1.703125 -9.453125 C 1.742188 -9.492188 1.785156 -9.515625 1.828125 -9.515625 Z M 1.828125 -9.515625 "/></g></g></g><g fill="#000000" fill-opacity="1"><g transform="translate(14.104337, 17.622606)"><g><path d="M 8.40625 -6.859375 C 8.40625 -6.722656 8.34375 -6.65625 8.21875 -6.65625 L 7.546875 -6.65625 C 7.421875 -6.65625 7.359375 -6.722656 7.359375 -6.859375 L 7.359375 -7.5 C 7.347656 -7.769531 7.25 -8 7.0625 -8.1875 C 6.875 -8.375 6.644531 -8.46875 6.375 -8.46875 L 3.28125 -8.46875 C 3.019531 -8.46875 2.789062 -8.367188 2.59375 -8.171875 C 2.40625 -7.984375 2.3125 -7.757812 2.3125 -7.5 L 2.3125 -2.03125 C 2.3125 -1.757812 2.40625 -1.523438 2.59375 -1.328125 C 2.789062 -1.140625 3.019531 -1.046875 3.28125 -1.046875 L 6.375 -1.046875 C 6.644531 -1.046875 6.875 -1.132812 7.0625 -1.3125 C 7.25 -1.5 7.347656 -1.726562 7.359375 -2 L 7.359375 -2.65625 C 7.359375 -2.707031 7.375 -2.753906 7.40625 -2.796875 C 7.445312 -2.835938 7.492188 -2.859375 7.546875 -2.859375 L 8.21875 -2.859375 C 8.269531 -2.859375 8.3125 -2.835938 8.34375 -2.796875 C 8.382812 -2.753906 8.40625 -2.707031 8.40625 -2.65625 L 8.40625 -2 C 8.40625 -1.71875 8.347656 -1.457031 8.234375 -1.21875 C 8.128906 -0.976562 7.984375 -0.765625 7.796875 -0.578125 C 7.617188 -0.398438 7.40625 -0.257812 7.15625 -0.15625 C 6.914062 -0.0507812 6.65625 0 6.375 0 L 3.28125 0 C 3.007812 0 2.75 -0.0507812 2.5 -0.15625 C 2.257812 -0.257812 2.046875 -0.398438 1.859375 -0.578125 C 1.679688 -0.765625 1.539062 -0.984375 1.4375 -1.234375 C 1.332031 -1.484375 1.28125 -1.75 1.28125 -2.03125 L 1.28125 -7.5 C 1.28125 -7.769531 1.332031 -8.023438 1.4375 -8.265625 C 1.539062 -8.515625 1.679688 -8.734375 1.859375 -8.921875 C 2.046875 -9.109375 2.257812 -9.253906 2.5 -9.359375 C 2.75 -9.460938 3.007812 -9.515625 3.28125 -9.515625 L 6.375 -9.515625 C 6.65625 -9.515625 6.914062 -9.460938 7.15625 -9.359375 C 7.40625 -9.253906 7.617188 -9.109375 7.796875 -8.921875 C 7.984375 -8.742188 8.128906 -8.53125 8.234375 -8.28125 C 8.347656 -8.039062 8.40625 -7.78125 8.40625 -7.5 Z M 8.40625 -6.859375 "/></g></g></g><g fill="#000000" fill-opacity="1"><g transform="translate(37.087712, 17.627627)"><g><path d="M 1.59375 -8.265625 L 2.171875 -8.265625 C 2.285156 -8.265625 2.34375 -8.207031 2.34375 -8.09375 L 2.34375 -0.921875 L 7.046875 -0.921875 C 7.097656 -0.921875 7.140625 -0.898438 7.171875 -0.859375 C 7.203125 -0.828125 7.21875 -0.789062 7.21875 -0.75 L 7.21875 -0.171875 C 7.21875 -0.0546875 7.160156 0 7.046875 0 L 1.59375 0 C 1.550781 0 1.507812 -0.015625 1.46875 -0.046875 C 1.4375 -0.078125 1.421875 -0.117188 1.421875 -0.171875 L 1.421875 -8.09375 C 1.421875 -8.144531 1.4375 -8.1875 1.46875 -8.21875 C 1.507812 -8.25 1.550781 -8.265625 1.59375 -8.265625 Z M 1.59375 -8.265625 "/></g></g></g><g fill="#000000" fill-opacity="1"><g transform="translate(45.5312, 17.627627)"><g><path d="M 5.328125 -8.265625 C 5.367188 -8.265625 5.410156 -8.25 5.453125 -8.21875 C 5.503906 -8.1875 5.535156 -8.148438 5.546875 -8.109375 L 7.234375 -3.921875 C 7.242188 -3.878906 7.253906 -3.820312 7.265625 -3.75 C 7.273438 -3.6875 7.28125 -3.632812 7.28125 -3.59375 L 7.28125 -0.171875 C 7.28125 -0.0546875 7.226562 0 7.125 0 L 6.546875 0 C 6.441406 0 6.390625 -0.0546875 6.390625 -0.171875 L 6.390625 -2.390625 L 2.015625 -2.390625 L 2.015625 -0.171875 C 2.015625 -0.0546875 1.957031 0 1.84375 0 L 1.265625 0 C 1.148438 0 1.09375 -0.0546875 1.09375 -0.171875 L 1.09375 -3.59375 C 1.09375 -3.632812 1.097656 -3.6875 1.109375 -3.75 C 1.117188 -3.820312 1.132812 -3.878906 1.15625 -3.921875 L 2.828125 -8.109375 C 2.847656 -8.148438 2.878906 -8.1875 2.921875 -8.21875 C 2.972656 -8.25 3.019531 -8.265625 3.0625 -8.265625 Z M 6.390625 -3.296875 L 6.390625 -3.59375 L 4.875 -7.34375 L 3.515625 -7.34375 L 2.015625 -3.59375 L 2.015625 -3.296875 Z M 6.390625 -3.296875 "/></g></g></g><g fill="#000000" fill-opacity="1"><g transform="translate(53.974688, 17.627627)"><g><path d="M 1.21875 -5.90625 C 1.1875 -5.945312 1.15625 -5.992188 1.125 -6.046875 C 1.101562 -6.097656 1.09375 -6.144531 1.09375 -6.1875 L 1.09375 -8.09375 C 1.09375 -8.132812 1.109375 -8.171875 1.140625 -8.203125 C 1.179688 -8.242188 1.222656 -8.265625 1.265625 -8.265625 L 1.84375 -8.265625 C 1.894531 -8.265625 1.9375 -8.242188 1.96875 -8.203125 C 2 -8.171875 2.015625 -8.132812 2.015625 -8.09375 L 2.015625 -6.546875 C 2.015625 -6.515625 2.023438 -6.46875 2.046875 -6.40625 C 2.066406 -6.351562 2.09375 -6.304688 2.125 -6.265625 L 4.203125 -4.234375 L 6.265625 -6.265625 C 6.304688 -6.304688 6.335938 -6.351562 6.359375 -6.40625 C 6.378906 -6.46875 6.390625 -6.515625 6.390625 -6.546875 L 6.390625 -8.09375 C 6.390625 -8.132812 6.40625 -8.171875 6.4375 -8.203125 C 6.46875 -8.242188 6.503906 -8.265625 6.546875 -8.265625 L 7.125 -8.265625 C 7.175781 -8.265625 7.21875 -8.242188 7.25 -8.203125 C 7.28125 -8.171875 7.296875 -8.132812 7.296875 -8.09375 L 7.296875 -6.1875 C 7.296875 -6.144531 7.285156 -6.097656 7.265625 -6.046875 C 7.242188 -5.992188 7.21875 -5.945312 7.1875 -5.90625 L 4.65625 -3.390625 L 4.65625 -0.171875 C 4.65625 -0.117188 4.632812 -0.078125 4.59375 -0.046875 C 4.5625 -0.015625 4.53125 0 4.5 0 L 3.921875 0 C 3.804688 0 3.75 -0.0546875 3.75 -0.171875 L 3.75 -3.390625 Z M 1.21875 -5.90625 "/></g></g></g><g fill="#000000" fill-opacity="1"><g transform="translate(62.406138, 17.627627)"><g><path d="M 1.28125 -0.171875 L 1.28125 -8.09375 C 1.28125 -8.207031 1.335938 -8.265625 1.453125 -8.265625 L 7.078125 -8.265625 C 7.179688 -8.265625 7.234375 -8.207031 7.234375 -8.09375 L 7.234375 -7.515625 C 7.234375 -7.398438 7.179688 -7.34375 7.078125 -7.34375 L 2.1875 -7.34375 L 2.1875 -4.59375 L 6.421875 -4.59375 C 6.460938 -4.59375 6.5 -4.570312 6.53125 -4.53125 C 6.570312 -4.5 6.59375 -4.460938 6.59375 -4.421875 L 6.59375 -3.84375 C 6.59375 -3.789062 6.570312 -3.75 6.53125 -3.71875 C 6.5 -3.6875 6.460938 -3.671875 6.421875 -3.671875 L 2.1875 -3.671875 L 2.1875 -0.921875 L 7.078125 -0.921875 C 7.117188 -0.921875 7.15625 -0.898438 7.1875 -0.859375 C 7.21875 -0.828125 7.234375 -0.789062 7.234375 -0.75 L 7.234375 -0.171875 C 7.234375 -0.0546875 7.179688 0 7.078125 0 L 1.453125 0 C 1.335938 0 1.28125 -0.0546875 1.28125 -0.171875 Z M 1.28125 -0.171875 "/></g></g></g><g fill="#000000" fill-opacity="1"><g transform="translate(70.837587, 17.627627)"><g><path d="M 6.15625 -0.15625 L 4.59375 -3.671875 L 2.015625 -3.671875 L 2.015625 -0.171875 C 2.015625 -0.0546875 1.957031 0 1.84375 0 L 1.28125 0 C 1.164062 0 1.109375 -0.0546875 1.109375 -0.171875 L 1.109375 -8.09375 C 1.109375 -8.207031 1.164062 -8.265625 1.28125 -8.265625 L 5.546875 -8.265625 C 5.785156 -8.265625 6.007812 -8.21875 6.21875 -8.125 C 6.4375 -8.03125 6.625 -7.898438 6.78125 -7.734375 C 6.9375 -7.578125 7.0625 -7.390625 7.15625 -7.171875 C 7.25 -6.960938 7.296875 -6.738281 7.296875 -6.5 L 7.296875 -5.4375 C 7.296875 -5.039062 7.175781 -4.6875 6.9375 -4.375 C 6.707031 -4.070312 6.398438 -3.863281 6.015625 -3.75 L 5.609375 -3.625 L 7.15625 -0.15625 C 7.175781 -0.113281 7.175781 -0.078125 7.15625 -0.046875 C 7.132812 -0.015625 7.101562 0 7.0625 0 L 6.390625 0 C 6.347656 0 6.300781 -0.015625 6.25 -0.046875 C 6.207031 -0.078125 6.175781 -0.113281 6.15625 -0.15625 Z M 2.015625 -4.59375 L 5.546875 -4.59375 C 5.773438 -4.59375 5.972656 -4.671875 6.140625 -4.828125 C 6.304688 -4.992188 6.390625 -5.195312 6.390625 -5.4375 L 6.390625 -6.5 C 6.390625 -6.738281 6.304688 -6.9375 6.140625 -7.09375 C 5.972656 -7.257812 5.773438 -7.34375 5.546875 -7.34375 L 2.015625 -7.34375 Z M 2.015625 -4.59375 "/></g></g></g><g fill="#000000" fill-opacity="1"><g transform="translate(79.281074, 17.627627)"><g><path d="M 1.28125 -0.171875 L 1.28125 -8.09375 C 1.28125 -8.207031 1.335938 -8.265625 1.453125 -8.265625 L 7.078125 -8.265625 C 7.179688 -8.265625 7.234375 -8.207031 7.234375 -8.09375 L 7.234375 -7.515625 C 7.234375 -7.398438 7.179688 -7.34375 7.078125 -7.34375 L 2.1875 -7.34375 L 2.1875 -4.59375 L 6.421875 -4.59375 C 6.460938 -4.59375 6.5 -4.570312 6.53125 -4.53125 C 6.570312 -4.5 6.59375 -4.460938 6.59375 -4.421875 L 6.59375 -3.84375 C 6.59375 -3.789062 6.570312 -3.75 6.53125 -3.71875 C 6.5 -3.6875 6.460938 -3.671875 6.421875 -3.671875 L 2.1875 -3.671875 L 2.1875 -0.921875 L 7.078125 -0.921875 C 7.117188 -0.921875 7.15625 -0.898438 7.1875 -0.859375 C 7.21875 -0.828125 7.234375 -0.789062 7.234375 -0.75 L 7.234375 -0.171875 C 7.234375 -0.0546875 7.179688 0 7.078125 0 L 1.453125 0 C 1.335938 0 1.28125 -0.0546875 1.28125 -0.171875 Z M 1.28125 -0.171875 "/></g></g></g><g fill="#000000" fill-opacity="1"><g transform="translate(87.712522, 17.627627)"><g><path d="M 1.09375 -0.171875 L 1.09375 -8.09375 C 1.09375 -8.132812 1.109375 -8.171875 1.140625 -8.203125 C 1.179688 -8.242188 1.222656 -8.265625 1.265625 -8.265625 L 5.546875 -8.265625 C 5.785156 -8.265625 6.007812 -8.21875 6.21875 -8.125 C 6.4375 -8.03125 6.625 -7.898438 6.78125 -7.734375 C 6.9375 -7.578125 7.0625 -7.390625 7.15625 -7.171875 C 7.25 -6.960938 7.296875 -6.738281 7.296875 -6.5 L 7.296875 -1.765625 C 7.296875 -1.515625 7.25 -1.28125 7.15625 -1.0625 C 7.0625 -0.851562 6.9375 -0.671875 6.78125 -0.515625 C 6.625 -0.359375 6.4375 -0.234375 6.21875 -0.140625 C 6.007812 -0.046875 5.785156 0 5.546875 0 L 1.265625 0 C 1.222656 0 1.179688 -0.015625 1.140625 -0.046875 C 1.109375 -0.078125 1.09375 -0.117188 1.09375 -0.171875 Z M 2.015625 -0.921875 L 5.546875 -0.921875 C 5.773438 -0.921875 5.972656 -1 6.140625 -1.15625 C 6.304688 -1.320312 6.390625 -1.523438 6.390625 -1.765625 L 6.390625 -6.5 C 6.390625 -6.738281 6.304688 -6.9375 6.140625 -7.09375 C 5.972656 -7.257812 5.773438 -7.34375 5.546875 -7.34375 L 2.015625 -7.34375 Z M 2.015625 -0.921875 "/></g></g></g><g fill="#000000" fill-opacity="1"><g transform="translate(96.156009, 17.627627)"><g/></g></g><g fill="#000000" fill-opacity="1"><g transform="translate(104.587461, 17.627627)"><g><path d="M 7.296875 -5.953125 C 7.296875 -5.835938 7.238281 -5.78125 7.125 -5.78125 L 6.546875 -5.78125 C 6.441406 -5.78125 6.390625 -5.835938 6.390625 -5.953125 L 6.390625 -6.515625 C 6.378906 -6.742188 6.289062 -6.9375 6.125 -7.09375 C 5.96875 -7.257812 5.773438 -7.34375 5.546875 -7.34375 L 2.859375 -7.34375 C 2.617188 -7.34375 2.414062 -7.257812 2.25 -7.09375 C 2.09375 -6.9375 2.015625 -6.738281 2.015625 -6.5 L 2.015625 -1.765625 C 2.015625 -1.523438 2.09375 -1.320312 2.25 -1.15625 C 2.414062 -1 2.617188 -0.921875 2.859375 -0.921875 L 5.546875 -0.921875 C 5.773438 -0.921875 5.96875 -1 6.125 -1.15625 C 6.289062 -1.3125 6.378906 -1.503906 6.390625 -1.734375 L 6.390625 -2.3125 C 6.390625 -2.351562 6.40625 -2.390625 6.4375 -2.421875 C 6.46875 -2.460938 6.503906 -2.484375 6.546875 -2.484375 L 7.125 -2.484375 C 7.175781 -2.484375 7.21875 -2.460938 7.25 -2.421875 C 7.28125 -2.390625 7.296875 -2.351562 7.296875 -2.3125 L 7.296875 -1.734375 C 7.296875 -1.492188 7.25 -1.269531 7.15625 -1.0625 C 7.0625 -0.851562 6.9375 -0.671875 6.78125 -0.515625 C 6.625 -0.359375 6.4375 -0.234375 6.21875 -0.140625 C 6.007812 -0.046875 5.785156 0 5.546875 0 L 2.859375 0 C 2.617188 0 2.390625 -0.046875 2.171875 -0.140625 C 1.960938 -0.234375 1.78125 -0.359375 1.625 -0.515625 C 1.46875 -0.671875 1.34375 -0.851562 1.25 -1.0625 C 1.15625 -1.28125 1.109375 -1.515625 1.109375 -1.765625 L 1.109375 -6.5 C 1.109375 -6.738281 1.15625 -6.960938 1.25 -7.171875 C 1.34375 -7.390625 1.46875 -7.578125 1.625 -7.734375 C 1.78125 -7.898438 1.960938 -8.03125 2.171875 -8.125 C 2.390625 -8.21875 2.617188 -8.265625 2.859375 -8.265625 L 5.546875 -8.265625 C 5.785156 -8.265625 6.007812 -8.21875 6.21875 -8.125 C 6.4375 -8.03125 6.625 -7.90625 6.78125 -7.75 C 6.9375 -7.59375 7.0625 -7.40625 7.15625 -7.1875 C 7.25 -6.976562 7.296875 -6.753906 7.296875 -6.515625 Z M 7.296875 -5.953125 "/></g></g></g><g fill="#000000" fill-opacity="1"><g transform="translate(113.030952, 17.627627)"><g><path d="M 2.859375 0 C 2.617188 0 2.390625 -0.046875 2.171875 -0.140625 C 1.960938 -0.234375 1.78125 -0.359375 1.625 -0.515625 C 1.46875 -0.671875 1.34375 -0.851562 1.25 -1.0625 C 1.15625 -1.28125 1.109375 -1.515625 1.109375 -1.765625 L 1.109375 -6.5 C 1.109375 -6.738281 1.15625 -6.960938 1.25 -7.171875 C 1.34375 -7.390625 1.46875 -7.578125 1.625 -7.734375 C 1.78125 -7.898438 1.960938 -8.03125 2.171875 -8.125 C 2.390625 -8.21875 2.617188 -8.265625 2.859375 -8.265625 L 5.546875 -8.265625 C 5.785156 -8.265625 6.007812 -8.21875 6.21875 -8.125 C 6.4375 -8.03125 6.625 -7.898438 6.78125 -7.734375 C 6.9375 -7.578125 7.0625 -7.390625 7.15625 -7.171875 C 7.25 -6.960938 7.296875 -6.738281 7.296875 -6.5 L 7.296875 -1.765625 C 7.296875 -1.515625 7.25 -1.28125 7.15625 -1.0625 C 7.0625 -0.851562 6.9375 -0.671875 6.78125 -0.515625 C 6.625 -0.359375 6.4375 -0.234375 6.21875 -0.140625 C 6.007812 -0.046875 5.785156 0 5.546875 0 Z M 2.859375 -7.34375 C 2.617188 -7.34375 2.414062 -7.257812 2.25 -7.09375 C 2.09375 -6.9375 2.015625 -6.738281 2.015625 -6.5 L 2.015625 -1.765625 C 2.015625 -1.523438 2.09375 -1.320312 2.25 -1.15625 C 2.414062 -1 2.617188 -0.921875 2.859375 -0.921875 L 5.546875 -0.921875 C 5.773438 -0.921875 5.972656 -1 6.140625 -1.15625 C 6.304688 -1.320312 6.390625 -1.523438 6.390625 -1.765625 L 6.390625 -6.5 C 6.390625 -6.738281 6.304688 -6.9375 6.140625 -7.09375 C 5.972656 -7.257812 5.773438 -7.34375 5.546875 -7.34375 Z M 2.859375 -7.34375 "/></g></g></g><g fill="#000000" fill-opacity="1"><g transform="translate(121.474442, 17.627627)"><g><path d="M 1.09375 -0.171875 L 1.09375 -8.09375 C 1.09375 -8.132812 1.109375 -8.171875 1.140625 -8.203125 C 1.179688 -8.242188 1.222656 -8.265625 1.265625 -8.265625 L 5.546875 -8.265625 C 5.785156 -8.265625 6.007812 -8.21875 6.21875 -8.125 C 6.4375 -8.03125 6.625 -7.898438 6.78125 -7.734375 C 6.9375 -7.578125 7.0625 -7.390625 7.15625 -7.171875 C 7.25 -6.960938 7.296875 -6.738281 7.296875 -6.5 L 7.296875 -1.765625 C 7.296875 -1.515625 7.25 -1.28125 7.15625 -1.0625 C 7.0625 -0.851562 6.9375 -0.671875 6.78125 -0.515625 C 6.625 -0.359375 6.4375 -0.234375 6.21875 -0.140625 C 6.007812 -0.046875 5.785156 0 5.546875 0 L 1.265625 0 C 1.222656 0 1.179688 -0.015625 1.140625 -0.046875 C 1.109375 -0.078125 1.09375 -0.117188 1.09375 -0.171875 Z M 2.015625 -0.921875 L 5.546875 -0.921875 C 5.773438 -0.921875 5.972656 -1 6.140625 -1.15625 C 6.304688 -1.320312 6.390625 -1.523438 6.390625 -1.765625 L 6.390625 -6.5 C 6.390625 -6.738281 6.304688 -6.9375 6.140625 -7.09375 C 5.972656 -7.257812 5.773438 -7.34375 5.546875 -7.34375 L 2.015625 -7.34375 Z M 2.015625 -0.921875 "/></g></g></g><g fill="#000000" fill-opacity="1"><g transform="translate(129.917933, 17.627627)"><g><path d="M 1.28125 -0.171875 L 1.28125 -8.09375 C 1.28125 -8.207031 1.335938 -8.265625 1.453125 -8.265625 L 7.078125 -8.265625 C 7.179688 -8.265625 7.234375 -8.207031 7.234375 -8.09375 L 7.234375 -7.515625 C 7.234375 -7.398438 7.179688 -7.34375 7.078125 -7.34375 L 2.1875 -7.34375 L 2.1875 -4.59375 L 6.421875 -4.59375 C 6.460938 -4.59375 6.5 -4.570312 6.53125 -4.53125 C 6.570312 -4.5 6.59375 -4.460938 6.59375 -4.421875 L 6.59375 -3.84375 C 6.59375 -3.789062 6.570312 -3.75 6.53125 -3.71875 C 6.5 -3.6875 6.460938 -3.671875 6.421875 -3.671875 L 2.1875 -3.671875 L 2.1875 -0.921875 L 7.078125 -0.921875 C 7.117188 -0.921875 7.15625 -0.898438 7.1875 -0.859375 C 7.21875 -0.828125 7.234375 -0.789062 7.234375 -0.75 L 7.234375 -0.171875 C 7.234375 -0.0546875 7.179688 0 7.078125 0 L 1.453125 0 C 1.335938 0 1.28125 -0.0546875 1.28125 -0.171875 Z M 1.28125 -0.171875 "/></g></g></g><g fill="#000000" fill-opacity="1"><g transform="translate(139.121207, 7.736864)"><g><path d="M 0.765625 0 L 0.5625 0 L 0.5625 -1.546875 L 0.015625 -1.546875 L 0.015625 -1.71875 L 1.296875 -1.71875 L 1.296875 -1.546875 L 0.765625 -1.546875 Z M 0.765625 0 "/></g></g></g><g fill="#000000" fill-opacity="1"><g transform="translate(140.617245, 7.736864)"><g><path d="M 0.984375 0 L 0.40625 -1.515625 C 0.40625 -1.484375 0.40625 -1.441406 0.40625 -1.390625 C 0.414062 -1.347656 0.421875 -1.300781 0.421875 -1.25 C 0.421875 -1.195312 0.421875 -1.140625 0.421875 -1.078125 L 0.421875 0 L 0.234375 0 L 0.234375 -1.71875 L 0.53125 -1.71875 L 1.078125 -0.28125 L 1.640625 -1.71875 L 1.921875 -1.71875 L 1.921875 0 L 1.734375 0 L 1.734375 -1.09375 C 1.734375 -1.144531 1.734375 -1.195312 1.734375 -1.25 C 1.734375 -1.300781 1.734375 -1.347656 1.734375 -1.390625 C 1.742188 -1.441406 1.75 -1.484375 1.75 -1.515625 L 1.734375 -1.515625 L 1.15625 0 Z M 0.984375 0 "/></g></g></g></svg>